<svg width="500" height="200" viewBox="0 0 500 200" fill="none" xmlns="http://www.w3.org/2000/svg">
<rect width="500" height="200" rx="20" fill="white"/>
<path d="M107 89C107 83.4772 111.477 79 117 79H136C141.523 79 146 83.4772 146 89V109C146 115.627 140.627 121 134 121H119C112.373 121 107 115.627 107 109V89Z" fill="black"/>
<rect x="107.85" y="79.85" width="37.5" height="35.5" rx="8.75" fill="white" stroke="black" stroke-width="0.5"/>
<path d="M130.332 105L124.952 98.78V105H122.672V91.1H124.952V97.44L130.352 91.1H133.212L127.172 98.06L133.312 105H130.332Z" fill="black"/>
<path d="M187.934 114L177.774 101.56V114H172.174V86.08H177.774V98.6L187.934 86.08H194.694L183.174 99.92L195.014 114H187.934ZM219.298 102.44C219.298 103.24 219.244 103.96 219.138 104.6H202.938C203.071 106.2 203.631 107.453 204.618 108.36C205.604 109.267 206.818 109.72 208.258 109.72C210.338 109.72 211.818 108.827 212.698 107.04H218.738C218.098 109.173 216.871 110.933 215.058 112.32C213.244 113.68 211.018 114.36 208.378 114.36C206.244 114.36 204.324 113.893 202.618 112.96C200.938 112 199.618 110.653 198.658 108.92C197.724 107.187 197.257 105.187 197.257 102.92C197.257 100.627 197.724 98.6133 198.658 96.88C199.591 95.1467 200.898 93.8133 202.578 92.88C204.258 91.9467 206.191 91.48 208.378 91.48C210.484 91.48 212.364 91.9333 214.018 92.84C215.698 93.7467 216.991 95.04 217.898 96.72C218.831 98.3733 219.298 100.28 219.298 102.44ZM213.498 100.84C213.471 99.4 212.951 98.2533 211.938 97.4C210.924 96.52 209.684 96.08 208.218 96.08C206.831 96.08 205.658 96.5067 204.698 97.36C203.764 98.1867 203.191 99.3467 202.978 100.84H213.498ZM244.585 91.84L230.865 124.48H224.905L229.705 113.44L220.825 91.84H227.105L232.825 107.32L238.625 91.84H244.585ZM256.844 108.84L262.444 91.84H268.404L260.204 114H253.404L245.244 91.84H251.244L256.844 108.84ZM274.389 89.2C273.402 89.2 272.576 88.8933 271.909 88.28C271.269 87.64 270.949 86.8533 270.949 85.92C270.949 84.9867 271.269 84.2133 271.909 83.6C272.576 82.96 273.402 82.64 274.389 82.64C275.376 82.64 276.189 82.96 276.829 83.6C277.496 84.2133 277.829 84.9867 277.829 85.92C277.829 86.8533 277.496 87.64 276.829 88.28C276.189 88.8933 275.376 89.2 274.389 89.2ZM277.149 91.84V114H271.549V91.84H277.149ZM287.802 109.4H297.682V114H281.442V109.48L291.122 96.44H281.482V91.84H297.562V96.36L287.802 109.4ZM320.789 108.84L326.389 91.84H332.349L324.149 114H317.349L309.189 91.84H315.189L320.789 108.84ZM336.614 107.68C339.174 105.547 341.214 103.773 342.734 102.36C344.254 100.92 345.521 99.4267 346.534 97.88C347.548 96.3333 348.054 94.8133 348.054 93.32C348.054 91.96 347.734 90.8933 347.094 90.12C346.454 89.3467 345.468 88.96 344.134 88.96C342.801 88.96 341.774 89.4133 341.054 90.32C340.334 91.2 339.961 92.4133 339.934 93.96H334.494C334.601 90.76 335.548 88.3333 337.334 86.68C339.148 85.0267 341.441 84.2 344.214 84.2C347.254 84.2 349.588 85.0133 351.214 86.64C352.841 88.24 353.654 90.36 353.654 93C353.654 95.08 353.094 97.0667 351.974 98.96C350.854 100.853 349.574 102.507 348.134 103.92C346.694 105.307 344.814 106.987 342.494 108.96H354.294V113.6H334.534V109.44L336.614 107.68ZM360.943 114.28C359.93 114.28 359.09 113.973 358.423 113.36C357.783 112.72 357.463 111.933 357.463 111C357.463 110.067 357.783 109.293 358.423 108.68C359.09 108.04 359.93 107.72 360.943 107.72C361.93 107.72 362.743 108.04 363.383 108.68C364.023 109.293 364.343 110.067 364.343 111C364.343 111.933 364.023 112.72 363.383 113.36C362.743 113.973 361.93 114.28 360.943 114.28ZM367.534 90V84.84H377.174V114H371.414V90H367.534Z" fill="black"/>
</svg>
