<svg width="64" height="64" viewBox="0 0 64 64" fill="none" xmlns="http://www.w3.org/2000/svg">
<path d="M2.28572 28.486C2.28572 16.0463 2.28572 9.82644 5.70081 5.62599C6.36003 4.81518 7.10089 4.07431 7.91171 3.41509C12.1122 0 18.332 0 30.7717 0H33.2283C45.668 0 51.8878 0 56.0883 3.41509C56.8991 4.07431 57.64 4.81518 58.2992 5.62599C61.7143 9.82644 61.7143 16.0463 61.7143 28.486V34.2857C61.7143 44.2803 61.7143 49.2776 59.8811 53.1426C58.0034 57.1011 54.8154 60.2892 50.8568 62.1668C46.9919 64 41.9946 64 32 64V64C22.0054 64 17.0081 64 13.1432 62.1668C9.18458 60.2892 5.99656 57.1011 4.11893 53.1426C2.28572 49.2776 2.28572 44.2803 2.28572 34.2857V28.486Z" fill="url(#paint0_radial_677_27)"/>
<path d="M2.28572 28.486C2.28572 16.0463 2.28572 9.82644 5.70081 5.62599C6.36003 4.81518 7.10089 4.07431 7.91171 3.41509C12.1122 0 18.332 0 30.7717 0H33.2283C45.668 0 51.8878 0 56.0883 3.41509C56.8991 4.07431 57.64 4.81518 58.2992 5.62599C61.7143 9.82644 61.7143 16.0463 61.7143 28.486V34.2857C61.7143 44.2803 61.7143 49.2776 59.8811 53.1426C58.0034 57.1011 54.8154 60.2892 50.8568 62.1668C46.9919 64 41.9946 64 32 64V64C22.0054 64 17.0081 64 13.1432 62.1668C9.18458 60.2892 5.99656 57.1011 4.11893 53.1426C2.28572 49.2776 2.28572 44.2803 2.28572 34.2857V28.486Z" fill="url(#paint1_linear_677_27)"/>
<g filter="url(#filter0_i_677_27)">
<path d="M3 28.1786C3 16.7527 3 11.0397 5.909 7.03433C6.84983 5.73891 7.98891 4.59983 9.28433 3.659C13.2897 0.75 19.0027 0.75 30.4286 0.75H33.4762C44.9021 0.75 50.6151 0.75 54.6204 3.659C55.9159 4.59983 57.0549 5.73891 57.9958 7.03433C60.9048 11.0397 60.9048 16.7527 60.9048 28.1786V28.1786C60.9048 39.6045 60.9048 45.3174 57.9958 49.3228C57.0549 50.6182 55.9159 51.7573 54.6204 52.6981C50.6151 55.6071 44.9021 55.6071 33.4762 55.6071H30.4286C19.0027 55.6071 13.2897 55.6071 9.28433 52.6981C7.98891 51.7573 6.84983 50.6182 5.909 49.3228C3 45.3174 3 39.6045 3 28.1786V28.1786Z" fill="url(#paint2_linear_677_27)"/>
</g>
<path d="M3 0.75H60.9048H3ZM60.9048 40.3671C60.9048 49.1982 53.7458 56.3571 44.9148 56.3571H18.99C10.159 56.3571 3 49.1982 3 40.3671C3 48.3698 9.82318 54.8571 18.24 54.8571H45.6648C54.0816 54.8571 60.9048 48.3698 60.9048 40.3671ZM3 55.6071V0.75V55.6071ZM60.9048 0.75V55.6071V0.75Z" fill="url(#paint3_linear_677_27)"/>
<path d="M37.9343 40.0952L29.7362 30.6171V40.0952H26.2619V18.9142H29.7362V28.5752L37.9648 18.9142H42.3229L33.1191 29.5199L42.4752 40.0952H37.9343Z" fill="url(#paint4_radial_677_27)"/>
<defs>
<filter id="filter0_i_677_27" x="3" y="-2.25" width="57.9048" height="58.6071" filterUnits="userSpaceOnUse" color-interpolation-filters="sRGB">
<feFlood flood-opacity="0" result="BackgroundImageFix"/>
<feBlend mode="normal" in="SourceGraphic" in2="BackgroundImageFix" result="shape"/>
<feColorMatrix in="SourceAlpha" type="matrix" values="0 0 0 0 0 0 0 0 0 0 0 0 0 0 0 0 0 0 127 0" result="hardAlpha"/>
<feOffset dy="-3"/>
<feGaussianBlur stdDeviation="3.125"/>
<feComposite in2="hardAlpha" operator="arithmetic" k2="-1" k3="1"/>
<feColorMatrix type="matrix" values="0 0 0 0 0 0 0 0 0 0 0 0 0 0 0 0 0 0 0.1 0"/>
<feBlend mode="normal" in2="shape" result="effect1_innerShadow_677_27"/>
</filter>
<radialGradient id="paint0_radial_677_27" cx="0" cy="0" r="1" gradientTransform="matrix(53 4.5 -8.40823 52.5219 4 51.5)" gradientUnits="userSpaceOnUse">
<stop stop-color="#FFCA94"/>
<stop offset="0.359375" stop-color="#B3FF88"/>
<stop offset="0.692708" stop-color="#00FFF5"/>
<stop offset="1" stop-color="#B367FF"/>
</radialGradient>
<linearGradient id="paint1_linear_677_27" x1="32" y1="64" x2="32" y2="28" gradientUnits="userSpaceOnUse">
<stop stop-opacity="0"/>
<stop offset="0.478355" stop-opacity="0.973004"/>
</linearGradient>
<linearGradient id="paint2_linear_677_27" x1="0.500002" y1="-0.5" x2="31.9524" y2="55.6071" gradientUnits="userSpaceOnUse">
<stop stop-color="white"/>
<stop offset="0.442308" stop-color="white"/>
<stop offset="1" stop-color="#FCFCFC"/>
</linearGradient>
<linearGradient id="paint3_linear_677_27" x1="31.9524" y1="0.75" x2="31.9524" y2="55.6071" gradientUnits="userSpaceOnUse">
<stop offset="0.769231"/>
<stop offset="1" stop-color="white"/>
</linearGradient>
<radialGradient id="paint4_radial_677_27" cx="0" cy="0" r="1" gradientTransform="matrix(15.8349 25.729 -11.1723 6.51074 30.5 22.5)" gradientUnits="userSpaceOnUse">
<stop/>
<stop offset="0.394147" stop-color="#484848"/>
<stop offset="1"/>
</radialGradient>
</defs>
</svg>
